<svg id="Layer_1" enable-background="new 0 0 512 512" height="512" viewBox="0 0 512 512" width="512" xmlns="http://www.w3.org/2000/svg"><g><path d="m336 448.185h42v56.315h-42z" fill="#fdaa8e"/><path d="m176 355.393h160v149.107h-160z" fill="#f75632"/><path d="m306 355.393h30v149.107h-30z" fill="#e33629"/><path d="m226 273.029h60v82.364h-60z" fill="#ffc6a1"/><path d="m256 273.029h30v82.364h-30z" fill="#fdaa8e"/><path d="m256 355.393h-51v-30h31.904c10.546 0 19.096 8.549 19.096 19.096z" fill="#f3f3f3"/><path d="m256 355.393h51v-30h-31.904c-10.546 0-19.096 8.549-19.096 19.096z" fill="#e4e4e4"/><path d="m324.97 220.491c0 15.99 9.821 28.953 21.936 28.953s19.153-14.886 19.153-30.876-7.038-27.029-19.153-27.029c-12.114 0-21.936 12.962-21.936 28.952z" fill="#fd9b7a"/><path d="m175.687 222.718v-59.416c0-41.797 33.883-75.68 75.68-75.68h9.267c41.797 0 75.68 33.883 75.68 75.68v59.416c0 44.289-35.903 80.192-80.192 80.192h-.242c-44.29 0-80.193-35.903-80.193-80.192z" fill="#ffc6a1"/><path d="m260.634 87.622h-9.267c-3.519 0-6.975.26-10.366.725 36.889 5.056 65.313 36.677 65.313 74.955v59.416c0 39.203-28.137 71.814-65.313 78.792 4.824.906 9.792 1.4 14.879 1.4h.242c44.289 0 80.192-35.904 80.192-80.193v-59.416c-.001-41.796-33.884-75.679-75.68-75.679z" fill="#fdaa8e"/><path d="m336 448.185h42v-56.792c0-19.882-16.118-36-36-36h-6z" fill="#e4e4e4"/><path d="m175.687 326.233h-42v56.542c0 20.021 16.23 36.251 36.251 36.251h5.749z" fill="#f3f3f3"/><path d="m355.31 139.566c-.62 42.4-19 60.485-19 60.485-41.92-26.561-59.563-79.372-59.563-79.372s-15.644 57.026-101.057 79.372c0 0-18.38-18.085-19-60.485-.384-26.714 34.31-73.515 99.31-73.515s99.536 57.83 99.31 73.515z" fill="#d67b42"/><g><path d="m256 66.051c-5.463 0-10.707.338-15.739.959 55.776 7.576 85.258 58.06 85.049 72.556-.292 20.002-4.537 34.587-8.94 44.421 5.918 5.881 12.55 11.381 19.94 16.064 0 0 18.38-18.085 19-60.485.226-15.685-34.31-73.515-99.31-73.515z" fill="#be652b"/></g><path d="m256 455.393c-8.284 0-15-6.716-15-15v-85h30v85c0 8.284-6.716 15-15 15z" fill="#f3f3f3"/><path d="m154.684 137.699c11.598 0 21 9.402 21 21v167.533h-42v-167.533c0-11.598 9.402-21 21-21z" fill="#ffc6a1"/><g fill="#ffc808"><path d="m254.22 40.383-14.044-30.197c-.585-1.259.36-2.686 1.78-2.686h28.088c1.42 0 2.366 1.427 1.78 2.686l-14.044 30.197c-.693 1.489-2.867 1.489-3.56 0z"/><path d="m103.883 176.319-30.197 14.044c-1.259.585-2.686-.36-2.686-1.78v-28.087c0-1.42 1.427-2.366 2.686-1.78l30.197 14.044c1.489.691 1.489 2.866 0 3.559z"/><path d="m408.117 176.319 30.197 14.044c1.259.585 2.686-.36 2.686-1.78v-28.087c0-1.42-1.427-2.366-2.686-1.78l-30.197 14.044c-1.489.691-1.489 2.866 0 3.559z"/><path d="m151.004 69.912-31.283-11.422c-1.304-.476-1.644-2.154-.64-3.158l19.861-19.861c1.004-1.004 2.682-.664 3.158.64l11.422 31.283c.563 1.544-.975 3.082-2.518 2.518z"/><path d="m360.996 69.912 31.283-11.422c1.304-.476 1.644-2.154.64-3.158l-19.861-19.861c-1.004-1.004-2.682-.664-3.158.64l-11.422 31.283c-.563 1.544.975 3.082 2.518 2.518z"/></g><g><path d="m342 347.893h-6c-.007 0-.013.001-.019.001h-21.481v-22.5c0-4.143-3.357-7.5-7.5-7.5h-13.5v-15.861c20-9.464 35.873-26.271 44.111-46.923 2.963 1.205 6.089 1.834 9.295 1.834 15.444 0 26.653-16.14 26.653-38.376 0-17.383-7.589-29.963-19.497-33.511 4.455-10.601 8.456-25.554 8.746-45.381.144-9.936-8.736-29.148-25.985-46.649-15.502-15.728-42.107-34.476-80.823-34.476-15.317 0-29.897 2.473-43.335 7.349-3.894 1.412-5.905 5.714-4.492 9.608 1.413 3.893 5.715 5.903 9.608 4.491 11.792-4.278 24.651-6.448 38.219-6.448 33.528 0 56.648 16.316 70.141 30.005 15.265 15.486 21.736 31.269 21.67 35.901-.39 26.704-8.319 42.961-13.13 50.403-35.104-25.753-50.661-71.085-50.82-71.558-1.042-3.12-3.953-5.187-7.289-5.105-3.288.075-6.148 2.301-7.048 5.465-.037.132-3.902 13.359-17.422 28.968-11.612 13.406-32.799 31.188-68.917 42.467v-31.397c0-12.052-7.524-22.374-18.118-26.534 2.478-10.544 10.486-25.331 26.706-37.914 3.273-2.539 3.868-7.25 1.329-10.522-2.539-3.274-7.251-3.868-10.523-1.329-17.168 13.318-29.275 31.398-32.522 48.181-13.521 2.218-23.871 13.98-23.871 28.118v97.3c0 4.143 3.358 7.5 7.5 7.5s7.5-3.357 7.5-7.5v-97.301c0-7.444 6.056-13.5 13.5-13.5s13.5 6.056 13.5 13.5v160.033h-27v-30.348c0-4.143-3.358-7.5-7.5-7.5s-7.5 3.357-7.5 7.5v37.848c0 .016.002.032.002.048v56.494c0 23.642 18.853 42.952 42.313 43.714v78.012c0 4.143 3.358 7.5 7.5 7.5h112.077c4.143 0 7.5-3.357 7.5-7.5s-3.357-7.5-7.5-7.5h-104.578v-134.106h50v77.5c0 12.406 10.093 22.5 22.5 22.5 12.406 0 22.5-10.094 22.5-22.5v-77.5h50v134.106h-8.115c-4.143 0-7.5 3.357-7.5 7.5s3.357 7.5 7.5 7.5h57.615c4.143 0 7.5-3.357 7.5-7.5v-113.107c0-23.987-19.514-43.5-43.5-43.5zm-63.5-29.999h-3.404c-7.488 0-14.258 3.115-19.096 8.111-4.838-4.996-11.608-8.111-19.096-8.111h-3.404v-10.382c7.147 1.888 14.647 2.898 22.379 2.898h.242c7.732 0 15.232-1.01 22.379-2.898zm68.406-118.856c11.092 0 11.653 16.269 11.653 19.529 0 12.89-5.228 23.376-11.653 23.376-1.902 0-3.56-.592-4.924-1.36 1.199-5.77 1.832-11.745 1.832-17.865v-19.876c.782-.975 1.73-2.238 2.776-3.786.105-.003.211-.018.316-.018zm-70.448-59.633c8.486 17.783 25.244 46.083 52.355 64.674v18.639c0 40.083-32.609 72.692-72.692 72.692h-.242c-40.083 0-72.692-32.609-72.692-72.692v-16.959c56.309-16.242 82.175-47.13 93.271-66.354zm-108.271 272.068c-15.042-.907-27-13.433-27-28.698v-49.041h27zm15-63.579v-21.66c0-.016-.002-.032-.002-.048v-54.471c8.8 13.014 21.002 23.546 35.316 30.319v15.861h-13.501c-4.142 0-7.5 3.357-7.5 7.5v22.5h-14.313zm29.313-15h24.404c6.394 0 11.596 5.202 11.596 11.596v3.404h-36zm51 107.5c0 4.136-3.364 7.5-7.5 7.5s-7.5-3.364-7.5-7.5v-77.5h15zm0-92.5v-3.404c0-6.394 5.202-11.596 11.596-11.596h24.404v15zm107 43.499v49.292h-27v-77.753c15.02.783 27 13.25 27 28.461zm0 105.607h-27v-41.315h27z"/><path d="m212.887 216.317 4.034 2.128-4.976 3.654c-3.338 2.452-4.057 7.146-1.605 10.484 1.47 2.001 3.745 3.062 6.051 3.062 1.541-.001 3.097-.474 4.434-1.456l14.631-10.746c2.083-1.529 3.231-4.023 3.04-6.601-.191-2.576-1.696-4.873-3.981-6.078l-14.631-7.715c-3.663-1.932-8.199-.527-10.132 3.136-1.934 3.665-.529 8.201 3.135 10.132z"/><path d="m274.245 223.443 14.631 10.746c1.337.982 2.893 1.456 4.434 1.456 2.306-.001 4.581-1.061 6.051-3.062 2.452-3.338 1.733-8.032-1.605-10.484l-4.976-3.654 4.034-2.128c3.664-1.932 5.068-6.468 3.136-10.132-1.932-3.663-6.468-5.071-10.132-3.136l-14.631 7.715c-2.286 1.205-3.79 3.502-3.981 6.078-.192 2.578.956 5.072 3.039 6.601z"/><path d="m247.419 43.546c1.542 3.313 4.909 5.453 8.58 5.454h.001c3.67 0 7.038-2.14 8.581-5.454l14.045-30.199c1.354-2.914 1.13-6.271-.599-8.981-1.744-2.734-4.728-4.366-7.983-4.366h-28.088c-3.255 0-6.24 1.632-7.983 4.366-1.729 2.711-1.952 6.068-.597 8.982zm13.894-28.546-5.313 11.426-5.313-11.426z"/><path d="m107.045 165.958-30.194-14.043c-2.914-1.354-6.272-1.134-8.983.595-2.735 1.744-4.368 4.729-4.368 7.985v28.087c0 3.257 1.633 6.241 4.368 7.985 1.535.979 3.277 1.475 5.029 1.475 1.342 0 2.689-.291 3.952-.879l30.194-14.043c3.315-1.54 5.458-4.909 5.458-8.581-.001-3.673-2.143-7.042-5.456-8.581zm-28.545 13.894v-10.626l11.424 5.313z"/><path d="m444.132 152.51c-2.711-1.729-6.066-1.95-8.98-.596l-30.196 14.044c-3.313 1.54-5.455 4.908-5.455 8.581 0 3.672 2.142 7.04 5.455 8.58h-.001l30.195 14.043c1.265.588 2.612.88 3.954.88 1.752-.001 3.494-.496 5.028-1.475 2.735-1.744 4.368-4.729 4.368-7.985v-28.087c0-3.257-1.633-6.241-4.368-7.985zm-10.632 27.342-11.425-5.313 11.425-5.313z"/><path d="m148.432 76.957c1.043.381 2.129.566 3.209.566 2.472 0 4.908-.97 6.715-2.776 2.596-2.596 3.464-6.491 2.21-9.925l-11.421-31.281c-1.102-3.019-3.633-5.236-6.772-5.931-3.169-.701-6.432.257-8.734 2.558l-19.861 19.861c-2.303 2.303-3.259 5.568-2.558 8.735.695 3.14 2.912 5.671 5.929 6.771l31.283 11.422c-.001 0-.001 0 0 0zm-17.874-22.494 7.514-7.515 4.321 11.836z"/><path d="m398.224 50.029-19.861-19.861c-2.304-2.304-5.572-3.259-8.735-2.558-3.14.695-5.671 2.913-6.771 5.93l-11.424 31.283c-1.252 3.433-.385 7.328 2.212 9.924 1.807 1.807 4.243 2.776 6.714 2.776 1.08 0 2.167-.186 3.21-.566l31.281-11.421c3.02-1.102 5.236-3.633 5.932-6.772.699-3.167-.257-6.432-2.558-8.735zm-28.617 8.755 4.321-11.836 7.514 7.515z"/></g></g></svg>