<svg id="Layer_1" height="512" viewBox="0 0 512 512" width="512" xmlns="http://www.w3.org/2000/svg" data-name="Layer 1"><path d="m346.02 416.71-4.97 49.63a31.869 31.869 0 0 1 -31.74 28.66h-154.92a31.867 31.867 0 0 1 -31.73-28.66l-5.46-54.5.06-.01c10.32 2.63 16.07 6.78 34.25 6.78 26.58 0 26.58-8.88 53.16-8.88s26.58 8.88 53.16 8.88 26.58-8.88 53.17-8.88c18.63 0 24.2 4.36 35.02 6.98z" fill="#a0eaea"/><path d="m353.33 343.76-7.31 72.95c-10.82-2.62-16.39-6.98-35.02-6.98-26.59 0-26.59 8.88-53.17 8.88s-26.58-8.88-53.16-8.88-26.58 8.88-53.16 8.88c-18.18 0-23.93-4.15-34.25-6.78l-.06.01-7.59-75.67.23-.02c15.86 2.08 19.6 8.2 41.67 8.2 26.58 0 26.58-8.88 53.16-8.88s26.58 8.88 53.16 8.88 26.58-8.88 53.17-8.88c22.38 0 25.92 6.29 42.33 8.29z" fill="#88ced8"/><path d="m360.72 270.03-7.39 73.73c-16.41-2-19.95-8.29-42.33-8.29-26.59 0-26.59 8.88-53.17 8.88s-26.58-8.88-53.16-8.88-26.58 8.88-53.16 8.88c-22.07 0-25.81-6.12-41.67-8.2l-.23.02-7.5-74.9c22.89.79 24.14 8.82 49.4 8.82 26.58 0 26.58-8.89 53.16-8.89s26.58 8.89 53.16 8.89 26.58-8.89 53.17-8.89c25.38 0 26.52 8.11 49.72 8.83z" fill="#a0eaea"/><path d="m304.19 70.87-.04.13h-221.15l19.11 190.45c22.89.79 24.14 8.73 49.4 8.73 26.58 0 26.58-8.935 53.16-8.935s26.58 8.867 53.16 8.867 26.58-8.9 53.17-8.9c25.38 0 26.52 8.1 49.72 8.825l16.68-165.477z" fill="#e9fbff"/><path d="m417.2 72.59a35.5 35.5 0 0 1 -7.88 8.09l-54.92 40.88-3.34 22.97 70.2 10.14 7.37-50.67a35.265 35.265 0 0 0 -11.43-31.41z" fill="#b75e69"/><path d="m421.26 154.67-7.38 50.68a35.47 35.47 0 0 1 -70.56-5.02 35.82 35.82 0 0 1 .37-5.13l7.37-50.67z" fill="#f3ce7d"/><path d="m417.2 72.59a35.5 35.5 0 0 1 -7.88 8.09l-41.16 30.64-42.44-56.65 41.16-30.64a35.548 35.548 0 0 1 49.64 7.17 35.294 35.294 0 0 1 .68 41.39z" fill="#f3ce7d"/><path d="m325.72 54.67-21.53 16.02-19.64 14.61a35.4 35.4 0 1 0 42.44 56.66l41.17-30.64z" fill="#cd656e"/><path d="m152.66 466.34-4.794-47.791c-15.36-.516-21.01-4.274-30.606-6.719l-.06.01 5.46 54.5a31.867 31.867 0 0 0 31.73 28.66h30a31.867 31.867 0 0 1 -31.73-28.66z" fill="#89ccca"/><path d="m147.866 418.549-7.508-74.839c-12.859-1.621-17.788-5.891-30.518-7.56l-.23.02 7.59 75.67.06-.01c9.596 2.445 15.246 6.203 30.606 6.719z" fill="#7abcc1"/><path d="m140.358 343.71-7.581-75.568c-9.673-2.408-15.293-6.158-30.649-6.691l7.482 74.719.23-.02c12.73 1.669 17.66 5.939 30.518 7.56z" fill="#89ccca"/><path d="m113 71h-30l19.11 190.45h.018c15.356.533 20.976 4.283 30.649 6.691z" fill="#d3e6ea"/><path d="m314.516 131.293a6 6 0 0 1 -3.587-10.813l22.276-16.58a6 6 0 1 1 7.164 9.626l-22.275 16.579a5.974 5.974 0 0 1 -3.578 1.188z" fill="#f4f8fc"/><path d="m393.245 208.367a6.139 6.139 0 0 1 -.871-.063 6 6 0 0 1 -5.074-6.8l3.794-26.076a6 6 0 1 1 11.875 1.727l-3.794 26.077a6 6 0 0 1 -5.93 5.135z" fill="#f4f8fc"/><g fill="#b7ccce"><path d="m128.5 223.317a6 6 0 0 1 -5.945-5.248l-11.255-88.956a6 6 0 0 1 11.9-1.506l11.251 88.956a6 6 0 0 1 -5.2 6.706 6.135 6.135 0 0 1 -.751.048z"/><path d="m114.676 114.032a6 6 0 0 1 -5.945-5.247l-.672-5.315a6 6 0 0 1 11.905-1.506l.672 5.315a6 6 0 0 1 -5.2 6.7 5.92 5.92 0 0 1 -.76.053z"/></g></svg>