<svg height="512" viewBox="0 0 512 512" width="512" xmlns="http://www.w3.org/2000/svg"><g id="Flat"><path d="m344 488h-176v-88h-24a120 120 0 0 1 -120-120v-24h464v32a8 8 0 0 1 -8 8h-136z" fill="#348ed8"/><path d="m51.269 306.185a95.661 95.661 0 0 1 -3.237-17.464l15.936-1.442a79.542 79.542 0 0 0 2.693 14.536z" fill="#459ce5"/><path d="m126.549 374.41a96.708 96.708 0 0 1 -68.042-50.762l14.238-7.3a80.613 80.613 0 0 0 56.706 42.324z" fill="#459ce5"/><path d="m360 24h112a16 16 0 0 1 16 16v216a0 0 0 0 1 0 0h-144a0 0 0 0 1 0 0v-216a16 16 0 0 1 16-16z" fill="#348ed8"/><rect fill="#d5d5d3" height="32" rx="16" width="272" x="24" y="224"/><rect fill="#dfdfdd" height="32" rx="16" transform="matrix(0 1 -1 0 420 -140)" width="232" x="164" y="124"/><g fill="#2d7dbe"><path d="m344 56h144v16h-144z"/><path d="m344 240h144v16h-144z"/><path d="m168 400h48v16h-48z"/></g><path d="m440 144h-56v-16l24-8v-16a8 8 0 0 1 8-8h24a8 8 0 0 1 8 8v32a8 8 0 0 1 -8 8z" fill="#dfdfdd"/></g></svg>